<?xml version="1.0" encoding="utf-8"?>
<!-- Generator: Adobe Illustrator 18.0.0, SVG Export Plug-In . SVG Version: 6.00 Build 0)  -->
<!DOCTYPE svg PUBLIC "-//W3C//DTD SVG 1.1//EN" "http://www.w3.org/Graphics/SVG/1.1/DTD/svg11.dtd">
<svg version="1.1" id="Layer_1" xmlns="http://www.w3.org/2000/svg" xmlns:xlink="http://www.w3.org/1999/xlink" x="0px" y="0px"
	 viewBox="0 0 2848 1558" style="enable-background:new 0 0 2848 1558;" xml:space="preserve">
<g>
	<path d="M1430.9,767.8c-15.3,0.1-30.6,6.6-42,19.7c-21.6,25-48.9,41.1-82.6,41.4c-38.4,0.3-74-19-82-65.2
		c-4.4-26.1-7.2-52.4-8.5-78.8c-1-19.5,3.6-38.2,7.2-57.1c1-5.4,3.5-10.4,7.2-14.4l0,0c29.4-31.9,64.1,28.9,103,9.7l8.4-4.1
		c21.3-10.9,54.5-20.9,82.3-22.2c2.2-0.1,4.4-0.2,6.7-0.2 M1322.8,748.9c17-0.3,33-4.7,48.8-10.9c6.3-2.5,10.9-7.1,14-13.1
		c2.8-5.4,2-9.1-3.6-12.3c-21.7-11.8-44.2-21.9-68.3-27.1c-12-2.7-24.1-4.9-36.5-3.6c-4.6,0.5-9,1.3-8.8,7.6
		C1269,720,1284.7,749.9,1322.8,748.9z"/>
	<path d="M1637.7,627.8c-1-5.4-3.5-10.4-7.2-14.4c-29.4-31.9-64.1,28.9-103,9.7l-8.4-4.1c-21.3-10.9-54.5-20.9-82.3-22.2
		c-2.2-0.1-4.4-0.2-6.7-0.2l-0.2,171.2c15.3,0.1,30.6,6.6,42,19.7c21.6,25,48.9,41.1,82.6,41.4c38.4,0.3,74-19,82-65.2
		c4.4-26.1,7.2-52.4,8.5-78.8C1645.9,665.4,1641.3,646.7,1637.7,627.8z M1537.9,748.9c-17-0.3-33-4.7-48.8-10.9
		c-6.3-2.5-10.9-7.1-14-13.1c-2.8-5.4-2-9.1,3.6-12.3c21.7-11.8,44.2-21.9,68.3-27.1c12-2.7,24.1-4.9,36.5-3.6
		c4.6,0.5,9,1.3,8.8,7.6C1591.7,720,1576,749.9,1537.9,748.9z"/>
</g>
</svg>
